<svg xmlns="http://www.w3.org/2000/svg" xmlns:xlink="http://www.w3.org/1999/xlink" width="48" height="48" version="1.1" viewBox="0 0 48 48"><title>04_icn</title><defs><polygon id="path-1" points="18.583 7.669 0 13.127 17.127 19.649 18.842 18.427 44.702 0"/><linearGradient id="linearGradient-3" x1="12.084%" x2="74.317%" y1="58.542%" y2="40.166%"><stop offset="0%" stop-color="#B5CFF6"/><stop offset="100%" stop-color="#B6DAF6"/></linearGradient><polygon id="path-4" points="0 2.792 0 19.49 26.339 0"/><linearGradient id="linearGradient-6" x1="-2.742%" x2="79.6%" y1="55.142%" y2="18.504%"><stop offset="0%" stop-color="#0044F6"/><stop offset="100%" stop-color="#0A90F6"/></linearGradient><polygon id="path-7" points="0 20.29 14.253 25.756 25.731 0"/><linearGradient id="linearGradient-9" x1="107.107%" x2="44.303%" y1=".314%" y2="70.8%"><stop offset="0%" stop-color="#B5CFF6"/><stop offset="100%" stop-color="#B6DAF6"/></linearGradient></defs><g id="Page-1" fill="none" fill-rule="evenodd" stroke="none" stroke-width="1"><g id="Group-29"><rect id="Rectangle-Copy-24" width="48" height="48" x="0" y="0" fill="#D8D8D8" opacity="0"/><g id="Group-17" transform="translate(1.000000, 7.000000)"><g id="Group-5" fill="#1D3DDC" transform="translate(18.216900, 0.151900)"><polygon id="Fill-3" points="1.953 20.207 0 21.795 0 39.749 26.641 0"/></g><g id="Group-8"><mask id="mask-2" fill="#fff"><use xlink:href="#path-1"/></mask><polygon id="Fill-6" fill="url(#linearGradient-3)" points="18.583 7.669 0 13.127 17.127 19.649 18.842 18.427 44.702 0" mask="url(#mask-2)"/></g><polygon id="Fill-9" fill="#000" points="25.206 29.51 18.219 21.955 19.763 20.707 28.82 24.169"/><g id="Group-13" transform="translate(18.363000, 0.000000)"><mask id="mask-5" fill="#fff"><use xlink:href="#path-4"/></mask><polygon id="Fill-11" fill="url(#linearGradient-6)" points="0 2.792 0 19.49 26.339 0" mask="url(#mask-5)"/></g><g id="Group-16" transform="translate(19.127000, 0.152000)"><mask id="mask-8" fill="#fff"><use xlink:href="#path-7"/></mask><polygon id="Fill-14" fill="url(#linearGradient-9)" points="0 20.29 14.253 25.756 25.731 0" mask="url(#mask-8)"/></g></g></g></g></svg>