<svg xmlns="http://www.w3.org/2000/svg" viewBox="0 0 240 196"><g id="Layer_2" data-name="Layer 2"><rect width="240" height="196" style="fill:#fff"/></g><g id="Layer_1" data-name="Layer 1"><g><path d="M102.518,146.3h0c1.618,3.875,1.618,6.338,0,10.214h34.964c-1.618-3.876-1.618-6.339,0-10.214H102.518Z" style="fill:none;stroke:#52565c;stroke-linecap:round;stroke-linejoin:round;stroke-width:2.5px"/><path d="M102.518,161l1.338,1.6a19.581,19.581,0,0,1,4.39,10.617h23.508a19.581,19.581,0,0,1,4.39-10.617l1.338-1.6Z" style="fill:none;stroke:#52565c;stroke-linecap:round;stroke-linejoin:round;stroke-width:2.5px"/><rect width="41.164" height="4.491" x="99.418" y="156.513" style="fill:none;stroke:#52565c;stroke-linecap:round;stroke-linejoin:round;stroke-width:2.5px"/><g><g><g><line x1="174.371" x2="170.467" y1="173.218" y2="169.314" style="fill:none;stroke:#52565c;stroke-linecap:round;stroke-linejoin:round;stroke-width:2.5px"/><line x1="174.371" x2="170.467" y1="169.314" y2="173.218" style="fill:none;stroke:#52565c;stroke-linecap:round;stroke-linejoin:round;stroke-width:2.5px"/></g><g><line x1="193.982" x2="190.077" y1="173.218" y2="169.314" style="fill:none;stroke:#52565c;stroke-linecap:round;stroke-linejoin:round;stroke-width:2.5px"/><line x1="193.982" x2="190.077" y1="169.314" y2="173.218" style="fill:none;stroke:#52565c;stroke-linecap:round;stroke-linejoin:round;stroke-width:2.5px"/></g><g><line x1="213.592" x2="209.688" y1="173.218" y2="169.314" style="fill:none;stroke:#52565c;stroke-linecap:round;stroke-linejoin:round;stroke-width:2.5px"/><line x1="213.592" x2="209.688" y1="169.314" y2="173.218" style="fill:none;stroke:#52565c;stroke-linecap:round;stroke-linejoin:round;stroke-width:2.5px"/></g></g><g><g><line x1="30.312" x2="26.408" y1="173.218" y2="169.314" style="fill:none;stroke:#52565c;stroke-linecap:round;stroke-linejoin:round;stroke-width:2.5px"/><line x1="30.312" x2="26.408" y1="169.314" y2="173.218" style="fill:none;stroke:#52565c;stroke-linecap:round;stroke-linejoin:round;stroke-width:2.5px"/></g><g><line x1="49.923" x2="46.018" y1="173.218" y2="169.314" style="fill:none;stroke:#52565c;stroke-linecap:round;stroke-linejoin:round;stroke-width:2.5px"/><line x1="49.923" x2="46.018" y1="169.314" y2="173.218" style="fill:none;stroke:#52565c;stroke-linecap:round;stroke-linejoin:round;stroke-width:2.5px"/></g><g><line x1="69.533" x2="65.629" y1="173.218" y2="169.314" style="fill:none;stroke:#52565c;stroke-linecap:round;stroke-linejoin:round;stroke-width:2.5px"/><line x1="69.533" x2="65.629" y1="169.314" y2="173.218" style="fill:none;stroke:#52565c;stroke-linecap:round;stroke-linejoin:round;stroke-width:2.5px"/></g></g></g><circle cx="120" cy="93.319" r="57.13" style="fill:none;stroke:#52565c;stroke-linecap:round;stroke-linejoin:round;stroke-width:2.5px"/><circle cx="120" cy="93.319" r="48.822" style="fill:none;stroke:#52565c;stroke-linecap:round;stroke-linejoin:round;stroke-width:2.5px"/><circle cx="120" cy="93.319" r="43.599" style="fill:none;stroke:#52565c;stroke-linecap:round;stroke-linejoin:round;stroke-width:2.5px"/><g><g><line x1="31.334" x2="25.023" y1="38.965" y2="46.705" style="fill:none;stroke:#52565c;stroke-linecap:round;stroke-linejoin:round;stroke-width:2.5px"/><line x1="37.46" x2="25.777" y1="40.365" y2="54.694" style="fill:none;stroke:#52565c;stroke-linecap:round;stroke-linejoin:round;stroke-width:2.5px"/><line x1="37.642" x2="28.922" y1="49.056" y2="59.751" style="fill:none;stroke:#52565c;stroke-linecap:round;stroke-linejoin:round;stroke-width:2.5px"/><g><line x1="31.303" x2="31.303" y1="66.392" y2="84.215" style="fill:none;stroke:#52565c;stroke-linecap:round;stroke-linejoin:round;stroke-width:2.5px"/><line x1="31.303" x2="31.303" y1="89.074" y2="91.304" style="fill:none;stroke:#52565c;stroke-linecap:round;stroke-linejoin:round;stroke-width:2.5px"/><line x1="22.147" x2="40.459" y1="23.961" y2="23.961" style="fill:none;stroke:#52565c;stroke-linecap:round;stroke-linejoin:round;stroke-width:2.5px"/><line x1="22.147" x2="40.459" y1="96.834" y2="96.834" style="fill:none;stroke:#52565c;stroke-linecap:round;stroke-linejoin:round;stroke-width:2.5px"/><path d="M37.9,50.837V23.961H24.7V50.837c0,4.258,1.923,7.863,4.579,9.1v.922C26.625,62.1,24.7,65.7,24.7,69.958V96.834H37.9V69.958c0-4.258-1.923-7.863-4.58-9.1v-.922C35.981,58.7,37.9,55.1,37.9,50.837Z" style="fill:none;stroke:#52565c;stroke-linecap:round;stroke-linejoin:round;stroke-width:2.5px"/><line x1="25.437" x2="37.169" y1="38.502" y2="38.502" style="fill:none;stroke:#52565c;stroke-linecap:round;stroke-linejoin:round;stroke-width:2.5px"/></g></g><g><g><line x1="202.358" x2="209.315" y1="76.043" y2="67.51" style="fill:none;stroke:#52565c;stroke-linecap:round;stroke-linejoin:round;stroke-width:2.5px"/><line x1="202.358" x2="215.224" y1="85.409" y2="69.628" style="fill:none;stroke:#52565c;stroke-linecap:round;stroke-linejoin:round;stroke-width:2.5px"/><line x1="202.358" x2="214.855" y1="94.776" y2="79.448" style="fill:none;stroke:#52565c;stroke-linecap:round;stroke-linejoin:round;stroke-width:2.5px"/><line x1="208.395" x2="214.957" y1="96.737" y2="88.688" style="fill:none;stroke:#52565c;stroke-linecap:round;stroke-linejoin:round;stroke-width:2.5px"/><line x1="214.593" x2="203.4" y1="52.472" y2="52.472" style="fill:none;stroke:#52565c;stroke-linecap:round;stroke-linejoin:round;stroke-width:2.5px"/><line x1="217.853" x2="199.541" y1="96.834" y2="96.834" style="fill:none;stroke:#52565c;stroke-linecap:round;stroke-linejoin:round;stroke-width:2.5px"/><line x1="217.853" x2="199.541" y1="23.961" y2="23.961" style="fill:none;stroke:#52565c;stroke-linecap:round;stroke-linejoin:round;stroke-width:2.5px"/><path d="M202.1,69.957V96.834h13.2V69.957c0-4.258-1.923-7.862-4.579-9.1v-.921c2.656-1.237,4.579-4.842,4.579-9.1V23.961H202.1V50.837c0,4.258,1.923,7.863,4.58,9.1v.921C204.019,62.1,202.1,65.7,202.1,69.957Z" style="fill:none;stroke:#52565c;stroke-linecap:round;stroke-linejoin:round;stroke-width:2.5px"/><line x1="214.563" x2="202.831" y1="67.37" y2="67.37" style="fill:none;stroke:#52565c;stroke-linecap:round;stroke-linejoin:round;stroke-width:2.5px"/></g><line x1="208.67" x2="208.67" y1="52.733" y2="55.624" style="fill:none;stroke:#52565c;stroke-linecap:round;stroke-linejoin:round;stroke-width:2.5px"/></g></g><polyline points="135.504 196.695 131.754 173.218 108.246 173.218 104.496 196.695" style="fill:none;stroke:#52565c;stroke-linecap:round;stroke-linejoin:round;stroke-width:2.5px"/><polyline points="129.289 196.695 127.042 173.218 112.958 173.218 110.711 196.695" style="fill:none;stroke:#52565c;stroke-linecap:round;stroke-linejoin:round;stroke-width:2.5px"/><polyline points="123.203 196.695 122.429 173.218 117.571 173.218 116.797 196.695" style="fill:none;stroke:#52565c;stroke-linecap:round;stroke-linejoin:round;stroke-width:2.5px"/><g><line x1="184.635" x2="147.894" y1="143.41" y2="143.41" style="fill:none;stroke:#52565c;stroke-linecap:round;stroke-linejoin:round;stroke-width:2.5px"/><line x1="199.589" x2="156.707" y1="137.731" y2="137.731" style="fill:none;stroke:#52565c;stroke-linecap:round;stroke-linejoin:round;stroke-width:2.5px"/><line x1="216.526" x2="162.108" y1="132.051" y2="132.051" style="fill:none;stroke:#52565c;stroke-linecap:round;stroke-linejoin:round;stroke-width:2.5px"/></g><g><line x1="54.933" x2="91.674" y1="143.41" y2="143.41" style="fill:none;stroke:#52565c;stroke-linecap:round;stroke-linejoin:round;stroke-width:2.5px"/><line x1="39.978" x2="82.861" y1="137.731" y2="137.731" style="fill:none;stroke:#52565c;stroke-linecap:round;stroke-linejoin:round;stroke-width:2.5px"/><line x1="23.042" x2="77.46" y1="132.051" y2="132.051" style="fill:none;stroke:#52565c;stroke-linecap:round;stroke-linejoin:round;stroke-width:2.5px"/></g><line x1="120" x2="120" y1="68.204" y2="87.863" style="fill:none;stroke:#52565c;stroke-linecap:round;stroke-linejoin:round;stroke-width:2.5px"/><line x1="120" x2="120" y1="98.775" y2="109.433" style="fill:none;stroke:#52565c;stroke-linecap:round;stroke-linejoin:round;stroke-width:2.5px"/><line x1="120" x2="120" y1="55.461" y2="60.603" style="fill:none;stroke:#52565c;stroke-linecap:round;stroke-linejoin:round;stroke-width:2.5px"/><g><g><line x1="120" x2="120" y1="55.461" y2="60.603" style="fill:none;stroke:#52565c;stroke-linecap:round;stroke-linejoin:round;stroke-width:2.5px"/><line x1="120" x2="120" y1="126.034" y2="131.176" style="fill:none;stroke:#52565c;stroke-linecap:round;stroke-linejoin:round;stroke-width:2.5px"/></g><g><line x1="157.857" x2="152.716" y1="93.319" y2="93.319" style="fill:none;stroke:#52565c;stroke-linecap:round;stroke-linejoin:round;stroke-width:2.5px"/><line x1="87.284" x2="82.143" y1="93.319" y2="93.319" style="fill:none;stroke:#52565c;stroke-linecap:round;stroke-linejoin:round;stroke-width:2.5px"/></g></g><g><g><line x1="93.231" x2="96.867" y1="66.55" y2="70.185" style="fill:none;stroke:#52565c;stroke-linecap:round;stroke-linejoin:round;stroke-width:2.5px"/><line x1="143.133" x2="146.769" y1="116.452" y2="120.088" style="fill:none;stroke:#52565c;stroke-linecap:round;stroke-linejoin:round;stroke-width:2.5px"/></g><g><line x1="146.769" x2="143.133" y1="66.55" y2="70.185" style="fill:none;stroke:#52565c;stroke-linecap:round;stroke-linejoin:round;stroke-width:2.5px"/><line x1="96.867" x2="93.231" y1="116.452" y2="120.088" style="fill:none;stroke:#52565c;stroke-linecap:round;stroke-linejoin:round;stroke-width:2.5px"/></g></g><g><g><line x1="85.157" x2="89.889" y1="78.515" y2="80.526" style="fill:none;stroke:#52565c;stroke-linecap:round;stroke-linejoin:round;stroke-width:2.5px"/><line x1="150.111" x2="154.843" y1="106.112" y2="108.122" style="fill:none;stroke:#52565c;stroke-linecap:round;stroke-linejoin:round;stroke-width:2.5px"/></g><g><line x1="134.803" x2="132.793" y1="58.476" y2="63.208" style="fill:none;stroke:#52565c;stroke-linecap:round;stroke-linejoin:round;stroke-width:2.5px"/><line x1="107.207" x2="105.197" y1="123.429" y2="128.162" style="fill:none;stroke:#52565c;stroke-linecap:round;stroke-linejoin:round;stroke-width:2.5px"/></g></g><g><g><line x1="84.895" x2="89.663" y1="107.489" y2="105.564" style="fill:none;stroke:#52565c;stroke-linecap:round;stroke-linejoin:round;stroke-width:2.5px"/><line x1="150.337" x2="155.105" y1="81.073" y2="79.149" style="fill:none;stroke:#52565c;stroke-linecap:round;stroke-linejoin:round;stroke-width:2.5px"/></g><g><line x1="105.83" x2="107.754" y1="58.213" y2="62.981" style="fill:none;stroke:#52565c;stroke-linecap:round;stroke-linejoin:round;stroke-width:2.5px"/><line x1="132.246" x2="134.17" y1="123.656" y2="128.424" style="fill:none;stroke:#52565c;stroke-linecap:round;stroke-linejoin:round;stroke-width:2.5px"/></g></g><g><g><line x1="82.879" x2="87.92" y1="100.746" y2="99.738" style="fill:none;stroke:#52565c;stroke-linecap:round;stroke-linejoin:round;stroke-width:2.5px"/><line x1="152.08" x2="157.121" y1="86.9" y2="85.891" style="fill:none;stroke:#52565c;stroke-linecap:round;stroke-linejoin:round;stroke-width:2.5px"/></g><g><line x1="112.572" x2="113.581" y1="56.197" y2="61.239" style="fill:none;stroke:#52565c;stroke-linecap:round;stroke-linejoin:round;stroke-width:2.5px"/><line x1="126.419" x2="127.428" y1="125.398" y2="130.44" style="fill:none;stroke:#52565c;stroke-linecap:round;stroke-linejoin:round;stroke-width:2.5px"/></g></g><g><g><line x1="82.892" x2="87.932" y1="85.825" y2="86.843" style="fill:none;stroke:#52565c;stroke-linecap:round;stroke-linejoin:round;stroke-width:2.5px"/><line x1="152.068" x2="157.108" y1="99.795" y2="100.813" style="fill:none;stroke:#52565c;stroke-linecap:round;stroke-linejoin:round;stroke-width:2.5px"/></g><g><line x1="127.494" x2="126.476" y1="56.211" y2="61.25" style="fill:none;stroke:#52565c;stroke-linecap:round;stroke-linejoin:round;stroke-width:2.5px"/><line x1="113.524" x2="112.506" y1="125.387" y2="130.427" style="fill:none;stroke:#52565c;stroke-linecap:round;stroke-linejoin:round;stroke-width:2.5px"/></g></g><g><g><line x1="88.636" x2="92.896" y1="72.118" y2="74.998" style="fill:none;stroke:#52565c;stroke-linecap:round;stroke-linejoin:round;stroke-width:2.5px"/><line x1="147.104" x2="151.364" y1="111.64" y2="114.519" style="fill:none;stroke:#52565c;stroke-linecap:round;stroke-linejoin:round;stroke-width:2.5px"/></g><g><line x1="141.2" x2="138.321" y1="61.954" y2="66.214" style="fill:none;stroke:#52565c;stroke-linecap:round;stroke-linejoin:round;stroke-width:2.5px"/><line x1="101.679" x2="98.8" y1="120.423" y2="124.683" style="fill:none;stroke:#52565c;stroke-linecap:round;stroke-linejoin:round;stroke-width:2.5px"/></g></g><g><g><line x1="99.077" x2="101.919" y1="61.769" y2="66.054" style="fill:none;stroke:#52565c;stroke-linecap:round;stroke-linejoin:round;stroke-width:2.5px"/><line x1="138.081" x2="140.923" y1="120.584" y2="124.869" style="fill:none;stroke:#52565c;stroke-linecap:round;stroke-linejoin:round;stroke-width:2.5px"/></g><g><line x1="151.55" x2="147.265" y1="72.396" y2="75.237" style="fill:none;stroke:#52565c;stroke-linecap:round;stroke-linejoin:round;stroke-width:2.5px"/><line x1="92.735" x2="88.45" y1="111.4" y2="114.242" style="fill:none;stroke:#52565c;stroke-linecap:round;stroke-linejoin:round;stroke-width:2.5px"/></g></g><circle cx="120" cy="93.319" r="5.456" style="fill:none;stroke:#52565c;stroke-linecap:round;stroke-linejoin:round;stroke-width:2.5px"/><circle cx="120" cy="93.319" r="1.961" style="fill:#52565c"/><path d="M140.243,39.693l-2.026-2.629a18.02,18.02,0,0,1-3.484-14.079H105.267a18.02,18.02,0,0,1-3.484,14.079l-2.12,2.749" style="fill:none;stroke:#52565c;stroke-linecap:round;stroke-linejoin:round;stroke-width:2.5px"/><rect width="41.164" height="4.491" x="99.418" y="18.494" style="fill:none;stroke:#52565c;stroke-linecap:round;stroke-linejoin:round;stroke-width:2.5px"/><g><line x1="119.956" x2="119.956" y1="23.327" y2="27.616" style="fill:none;stroke:#52565c;stroke-linecap:round;stroke-linejoin:round;stroke-width:2.5px"/><line x1="117.352" x2="122.648" y1="27.593" y2="27.593" style="fill:none;stroke:#52565c;stroke-linecap:round;stroke-linejoin:round;stroke-width:2.5px"/><line x1="117.352" x2="122.648" y1="31.75" y2="31.75" style="fill:none;stroke:#52565c;stroke-linecap:round;stroke-linejoin:round;stroke-width:2.5px"/></g><line x1="119.956" x2="119.956" y1="8.879" y2="12.064" style="fill:none;stroke:#52565c;stroke-linecap:round;stroke-linejoin:round;stroke-width:2.5px"/><polygon points="120 12.064 104.804 18.494 135.196 18.494 120 12.064" style="fill:none;stroke:#52565c;stroke-linecap:round;stroke-linejoin:round;stroke-width:2.5px"/></g></g></svg>