<svg xmlns="http://www.w3.org/2000/svg" viewBox="0 0 240 196"><g id="Layer_2" data-name="Layer 2"><rect width="240" height="196" style="fill:#fff"/></g><g id="Layer_1" data-name="Layer 1"><g><g><line x1="119.675" x2="119.675" y1="11.93" y2="22.758" style="fill:none;stroke:#52565c;stroke-linecap:round;stroke-linejoin:round;stroke-width:2.5px"/><line x1="145.381" x2="141.294" y1="16.968" y2="26.995" style="fill:none;stroke:#52565c;stroke-linecap:round;stroke-linejoin:round;stroke-width:2.5px"/><line x1="93.098" x2="97.324" y1="17.33" y2="27.3" style="fill:none;stroke:#52565c;stroke-linecap:round;stroke-linejoin:round;stroke-width:2.5px"/><line x1="105.971" x2="108.15" y1="13.323" y2="23.93" style="fill:none;stroke:#52565c;stroke-linecap:round;stroke-linejoin:round;stroke-width:2.5px"/><line x1="132.293" x2="130.287" y1="13.11" y2="23.75" style="fill:none;stroke:#52565c;stroke-linecap:round;stroke-linejoin:round;stroke-width:2.5px"/><line x1="157.147" x2="151.189" y1="23.166" y2="32.208" style="fill:none;stroke:#52565c;stroke-linecap:round;stroke-linejoin:round;stroke-width:2.5px"/><line x1="81.537" x2="87.601" y1="23.611" y2="32.581" style="fill:none;stroke:#52565c;stroke-linecap:round;stroke-linejoin:round;stroke-width:2.5px"/></g><rect width="31.261" height="51.612" x="103.712" y="109.742" rx="5.999" transform="translate(-16.206 254.891) rotate(-90)" style="fill:none;stroke:#52565c;stroke-linecap:round;stroke-linejoin:round;stroke-width:2.5px"/><path d="M98.551,151.715v8.674a3.676,3.676,0,0,0,3.676,3.677h34.23a3.677,3.677,0,0,0,3.677-3.677v-8.674" style="fill:none;stroke:#52565c;stroke-linecap:round;stroke-linejoin:round;stroke-width:2.5px"/><path d="M111.992,165.079v.977a5.592,5.592,0,0,0,5.592,5.591H121.1a5.591,5.591,0,0,0,5.591-5.591v-.977" style="fill:none;stroke:#52565c;stroke-linecap:round;stroke-linejoin:round;stroke-width:2.5px"/><rect width="13.476" height="105.62" x="112.604" y="8.837" rx="6.738" transform="translate(57.695 180.989) rotate(-90)" style="fill:none;stroke:#52565c;stroke-linecap:round;stroke-linejoin:round;stroke-width:2.5px"/><path d="M140.156,119.077c0-25.3,8.352-39.659,25.8-50.692H72.725c17.452,11.033,25.8,25.395,25.8,50.692" style="fill:none;stroke:#52565c;stroke-linecap:round;stroke-linejoin:round;stroke-width:2.5px"/><path d="M105.271,54.213q0,.349.018.7H133.4c.011-.231.018-.463.018-.7a14.072,14.072,0,1,0-28.143,0Z" style="fill:none;stroke:#52565c;stroke-linecap:round;stroke-linejoin:round;stroke-width:2.5px"/><g><line x1="168.527" x2="146" y1="145.18" y2="145.18" style="fill:none;stroke:#52565c;stroke-linecap:round;stroke-linejoin:round;stroke-width:2.5px"/><line x1="183.482" x2="146" y1="139.501" y2="139.501" style="fill:none;stroke:#52565c;stroke-linecap:round;stroke-linejoin:round;stroke-width:2.5px"/><line x1="200.418" x2="146" y1="133.821" y2="133.821" style="fill:none;stroke:#52565c;stroke-linecap:round;stroke-linejoin:round;stroke-width:2.5px"/></g><g><line x1="69.911" x2="92.438" y1="145.18" y2="145.18" style="fill:none;stroke:#52565c;stroke-linecap:round;stroke-linejoin:round;stroke-width:2.5px"/><line x1="54.957" x2="92.438" y1="139.501" y2="139.501" style="fill:none;stroke:#52565c;stroke-linecap:round;stroke-linejoin:round;stroke-width:2.5px"/><line x1="38.02" x2="92.438" y1="133.821" y2="133.821" style="fill:none;stroke:#52565c;stroke-linecap:round;stroke-linejoin:round;stroke-width:2.5px"/></g><g><g><g><line x1="174.371" x2="170.467" y1="117.41" y2="113.505" style="fill:none;stroke:#52565c;stroke-linecap:round;stroke-linejoin:round;stroke-width:2.5px"/><line x1="174.371" x2="170.467" y1="113.505" y2="117.41" style="fill:none;stroke:#52565c;stroke-linecap:round;stroke-linejoin:round;stroke-width:2.5px"/></g><g><line x1="193.982" x2="190.077" y1="117.41" y2="113.505" style="fill:none;stroke:#52565c;stroke-linecap:round;stroke-linejoin:round;stroke-width:2.5px"/><line x1="193.982" x2="190.077" y1="113.505" y2="117.41" style="fill:none;stroke:#52565c;stroke-linecap:round;stroke-linejoin:round;stroke-width:2.5px"/></g><g><line x1="213.592" x2="209.688" y1="117.41" y2="113.505" style="fill:none;stroke:#52565c;stroke-linecap:round;stroke-linejoin:round;stroke-width:2.5px"/><line x1="213.592" x2="209.688" y1="113.505" y2="117.41" style="fill:none;stroke:#52565c;stroke-linecap:round;stroke-linejoin:round;stroke-width:2.5px"/></g></g><g><g><line x1="30.312" x2="26.408" y1="117.41" y2="113.505" style="fill:none;stroke:#52565c;stroke-linecap:round;stroke-linejoin:round;stroke-width:2.5px"/><line x1="30.312" x2="26.408" y1="113.505" y2="117.41" style="fill:none;stroke:#52565c;stroke-linecap:round;stroke-linejoin:round;stroke-width:2.5px"/></g><g><line x1="49.923" x2="46.018" y1="117.41" y2="113.505" style="fill:none;stroke:#52565c;stroke-linecap:round;stroke-linejoin:round;stroke-width:2.5px"/><line x1="49.923" x2="46.018" y1="113.505" y2="117.41" style="fill:none;stroke:#52565c;stroke-linecap:round;stroke-linejoin:round;stroke-width:2.5px"/></g><g><line x1="69.533" x2="65.629" y1="117.41" y2="113.505" style="fill:none;stroke:#52565c;stroke-linecap:round;stroke-linejoin:round;stroke-width:2.5px"/><line x1="69.533" x2="65.629" y1="113.505" y2="117.41" style="fill:none;stroke:#52565c;stroke-linecap:round;stroke-linejoin:round;stroke-width:2.5px"/></g></g></g><path d="M119.387,172.428V176.4a7.972,7.972,0,0,0,7.972,7.972h26.064a7.973,7.973,0,0,1,7.973,7.973v3.673" style="fill:none;stroke:#52565c;stroke-linecap:round;stroke-linejoin:round;stroke-width:2.5px"/><g><line x1="106.954" x2="99.115" y1="151.482" y2="161.096" style="fill:none;stroke:#52565c;stroke-linecap:round;stroke-linejoin:round;stroke-width:2.5px"/><line x1="115.529" x2="105.766" y1="151.482" y2="163.455" style="fill:none;stroke:#52565c;stroke-linecap:round;stroke-linejoin:round;stroke-width:2.5px"/><line x1="124.103" x2="114.208" y1="151.482" y2="163.618" style="fill:none;stroke:#52565c;stroke-linecap:round;stroke-linejoin:round;stroke-width:2.5px"/><line x1="132.678" x2="123.033" y1="151.482" y2="163.311" style="fill:none;stroke:#52565c;stroke-linecap:round;stroke-linejoin:round;stroke-width:2.5px"/><line x1="139.883" x2="131.603" y1="153.162" y2="163.317" style="fill:none;stroke:#52565c;stroke-linecap:round;stroke-linejoin:round;stroke-width:2.5px"/></g><circle cx="99.76" cy="125.938" r="1.961" style="fill:#52565c"/><circle cx="73.585" cy="61.526" r="1.961" style="fill:#52565c"/><circle cx="164.982" cy="61.526" r="1.961" style="fill:#52565c"/><circle cx="99.76" cy="144.893" r="1.961" style="fill:#52565c"/><circle cx="138.728" cy="125.938" r="1.961" style="fill:#52565c"/><circle cx="138.728" cy="144.893" r="1.961" style="fill:#52565c"/><line x1="109.141" x2="128.851" y1="144.792" y2="144.792" style="fill:none;stroke:#52565c;stroke-linecap:round;stroke-linejoin:round;stroke-width:2.5px"/><line x1="109.141" x2="128.851" y1="125.943" y2="125.943" style="fill:none;stroke:#52565c;stroke-linecap:round;stroke-linejoin:round;stroke-width:2.5px"/><line x1="133.347" x2="158.497" y1="73.651" y2="73.651" style="fill:none;stroke:#52565c;stroke-linecap:round;stroke-linejoin:round;stroke-width:2.5px"/><line x1="128.942" x2="151.527" y1="79.513" y2="79.513" style="fill:none;stroke:#52565c;stroke-linecap:round;stroke-linejoin:round;stroke-width:2.5px"/><line x1="125.63" x2="147.211" y1="85.374" y2="85.374" style="fill:none;stroke:#52565c;stroke-linecap:round;stroke-linejoin:round;stroke-width:2.5px"/><line x1="123.799" x2="144.726" y1="91.236" y2="91.236" style="fill:none;stroke:#52565c;stroke-linecap:round;stroke-linejoin:round;stroke-width:2.5px"/><line x1="122.229" x2="142.895" y1="97.097" y2="97.097" style="fill:none;stroke:#52565c;stroke-linecap:round;stroke-linejoin:round;stroke-width:2.5px"/><line x1="121.445" x2="141.325" y1="102.959" y2="102.959" style="fill:none;stroke:#52565c;stroke-linecap:round;stroke-linejoin:round;stroke-width:2.5px"/><line x1="120.921" x2="140.279" y1="108.82" y2="108.82" style="fill:none;stroke:#52565c;stroke-linecap:round;stroke-linejoin:round;stroke-width:2.5px"/><line x1="120.791" x2="140.017" y1="114.682" y2="114.682" style="fill:none;stroke:#52565c;stroke-linecap:round;stroke-linejoin:round;stroke-width:2.5px"/><g><line x1="213.285" x2="202.58" y1="94.347" y2="94.347" style="fill:none;stroke:#52565c;stroke-linecap:round;stroke-linejoin:round;stroke-width:2.5px"/><g><line x1="207.932" x2="207.932" y1="94.368" y2="44.534" style="fill:none;stroke:#52565c;stroke-linecap:round;stroke-linejoin:round;stroke-width:2.5px"/><line x1="213.285" x2="202.58" y1="59.104" y2="59.104" style="fill:none;stroke:#52565c;stroke-linecap:round;stroke-linejoin:round;stroke-width:2.5px"/><line x1="213.285" x2="202.58" y1="53.238" y2="53.238" style="fill:none;stroke:#52565c;stroke-linecap:round;stroke-linejoin:round;stroke-width:2.5px"/><rect width="10.361" height="21.408" x="202.721" y="22.961" rx="1.397" style="fill:none;stroke:#52565c;stroke-linecap:round;stroke-linejoin:round;stroke-width:2.5px"/><path d="M202.412,37.186h-4.2v6.093a5.47,5.47,0,0,0,5.469,5.47h8.439a5.469,5.469,0,0,0,5.469-5.47V37.186h-4.1" style="fill:none;stroke:#52565c;stroke-linecap:round;stroke-linejoin:round;stroke-width:2.5px"/><g><line x1="210.984" x2="212.503" y1="27.692" y2="27.692" style="fill:none;stroke:#52565c;stroke-linecap:round;stroke-linejoin:round;stroke-width:2.5px"/><line x1="210.984" x2="212.503" y1="33.653" y2="33.653" style="fill:none;stroke:#52565c;stroke-linecap:round;stroke-linejoin:round;stroke-width:2.5px"/><line x1="210.984" x2="212.503" y1="39.614" y2="39.614" style="fill:none;stroke:#52565c;stroke-linecap:round;stroke-linejoin:round;stroke-width:2.5px"/></g><g><line x1="203.195" x2="204.714" y1="27.692" y2="27.692" style="fill:none;stroke:#52565c;stroke-linecap:round;stroke-linejoin:round;stroke-width:2.5px"/><line x1="203.195" x2="204.714" y1="33.653" y2="33.653" style="fill:none;stroke:#52565c;stroke-linecap:round;stroke-linejoin:round;stroke-width:2.5px"/><line x1="203.195" x2="204.714" y1="39.614" y2="39.614" style="fill:none;stroke:#52565c;stroke-linecap:round;stroke-linejoin:round;stroke-width:2.5px"/></g></g></g><g><g><circle cx="44.077" cy="26.164" r="3.203" style="fill:none;stroke:#52565c;stroke-linecap:round;stroke-linejoin:round;stroke-width:2.5px"/><path d="M40.874,94.419V26.164a3.2,3.2,0,0,1,3.2-3.2H29.061a3.2,3.2,0,0,0-3.2,3.2V90.546" style="fill:none;stroke:#52565c;stroke-linecap:round;stroke-linejoin:round;stroke-width:2.5px"/><g><path d="M37.671,91.217H22.656a3.2,3.2,0,1,0,0,6.405H37.671" style="fill:none;stroke:#52565c;stroke-linecap:round;stroke-linejoin:round;stroke-width:2.5px"/><circle cx="37.671" cy="94.419" r="3.203" style="fill:none;stroke:#52565c;stroke-linecap:round;stroke-linejoin:round;stroke-width:2.5px"/></g></g><g><line x1="30.705" x2="36.201" y1="31.419" y2="31.419" style="fill:none;stroke:#52565c;stroke-linecap:round;stroke-linejoin:round;stroke-width:2.5px"/><line x1="30.705" x2="31.294" y1="35.828" y2="35.828" style="fill:none;stroke:#52565c;stroke-linecap:round;stroke-linejoin:round;stroke-width:2.5px"/><line x1="30.705" x2="36.201" y1="40.237" y2="40.237" style="fill:none;stroke:#52565c;stroke-linecap:round;stroke-linejoin:round;stroke-width:2.5px"/><line x1="30.705" x2="31.294" y1="44.647" y2="44.647" style="fill:none;stroke:#52565c;stroke-linecap:round;stroke-linejoin:round;stroke-width:2.5px"/><line x1="30.705" x2="36.201" y1="49.056" y2="49.056" style="fill:none;stroke:#52565c;stroke-linecap:round;stroke-linejoin:round;stroke-width:2.5px"/><line x1="30.705" x2="36.201" y1="53.465" y2="53.465" style="fill:none;stroke:#52565c;stroke-linecap:round;stroke-linejoin:round;stroke-width:2.5px"/><line x1="30.705" x2="31.294" y1="57.874" y2="57.874" style="fill:none;stroke:#52565c;stroke-linecap:round;stroke-linejoin:round;stroke-width:2.5px"/><line x1="34.657" x2="36.201" y1="35.828" y2="35.828" style="fill:none;stroke:#52565c;stroke-linecap:round;stroke-linejoin:round;stroke-width:2.5px"/><line x1="34.657" x2="36.201" y1="44.647" y2="44.647" style="fill:none;stroke:#52565c;stroke-linecap:round;stroke-linejoin:round;stroke-width:2.5px"/><line x1="34.657" x2="36.201" y1="57.874" y2="57.874" style="fill:none;stroke:#52565c;stroke-linecap:round;stroke-linejoin:round;stroke-width:2.5px"/><line x1="30.705" x2="31.294" y1="71.016" y2="71.016" style="fill:none;stroke:#52565c;stroke-linecap:round;stroke-linejoin:round;stroke-width:2.5px"/><line x1="30.705" x2="36.201" y1="75.425" y2="75.425" style="fill:none;stroke:#52565c;stroke-linecap:round;stroke-linejoin:round;stroke-width:2.5px"/><line x1="30.705" x2="36.201" y1="79.834" y2="79.834" style="fill:none;stroke:#52565c;stroke-linecap:round;stroke-linejoin:round;stroke-width:2.5px"/><line x1="30.705" x2="31.294" y1="84.244" y2="84.244" style="fill:none;stroke:#52565c;stroke-linecap:round;stroke-linejoin:round;stroke-width:2.5px"/><line x1="34.657" x2="36.201" y1="71.016" y2="71.016" style="fill:none;stroke:#52565c;stroke-linecap:round;stroke-linejoin:round;stroke-width:2.5px"/><line x1="34.657" x2="36.201" y1="84.244" y2="84.244" style="fill:none;stroke:#52565c;stroke-linecap:round;stroke-linejoin:round;stroke-width:2.5px"/></g></g></g></g></svg>