<svg xmlns="http://www.w3.org/2000/svg" width="89" height="103" fill="none" viewBox="0 0 89 103"><mask id="mask0_2_3033" style="mask-type:alpha" width="89" height="101" x="0" y="1" maskUnits="userSpaceOnUse"><path fill="url(#paint0_radial_2_3033)" d="M38.4899 3.47777C42.2078 1.32637 46.7922 1.32637 50.5101 3.47777L83.0101 22.284C86.7172 24.4291 89 28.3874 89 32.6704V70.3296C89 74.6126 86.7172 78.5709 83.0101 80.716L50.5101 99.5222C46.7922 101.674 42.2078 101.674 38.4899 99.5222L5.98986 80.716C2.28276 78.5709 0 74.6126 0 70.3296V32.6704C0 28.3874 2.28276 24.4291 5.98987 22.284L38.4899 3.47777Z"/></mask><g mask="url(#mask0_2_3033)"><g filter="url(#filter0_f_2_3033)"><circle cx="88.5" cy="130.5" r="73.5" fill="#DB6CBC"/></g><g filter="url(#filter1_f_2_3033)"><circle cx="-11.5" cy="139.5" r="72.5" fill="#E9922D"/></g></g><path stroke="#1E2E45" stroke-width="1.5" d="M35.2317 71.1478C24.6084 65.2508 20.777 51.8584 26.6741 41.2351C32.5711 30.6119 45.9634 26.7805 56.5867 32.6775"/><path stroke="#1E2E45" stroke-width="1.5" d="M64.6611 63.4641L40.6172 50.1172"/><circle cx="41.056" cy="50.361" r="4" fill="#1E2E45" transform="rotate(29.0348 41.0559 50.3605)"/><defs><filter id="filter0_f_2_3033" width="207" height="207" x="-15" y="27" color-interpolation-filters="sRGB" filterUnits="userSpaceOnUse"><feFlood flood-opacity="0" result="BackgroundImageFix"/><feBlend in="SourceGraphic" in2="BackgroundImageFix" mode="normal" result="shape"/><feGaussianBlur result="effect1_foregroundBlur_2_3033" stdDeviation="15"/></filter><filter id="filter1_f_2_3033" width="205" height="205" x="-114" y="37" color-interpolation-filters="sRGB" filterUnits="userSpaceOnUse"><feFlood flood-opacity="0" result="BackgroundImageFix"/><feBlend in="SourceGraphic" in2="BackgroundImageFix" mode="normal" result="shape"/><feGaussianBlur result="effect1_foregroundBlur_2_3033" stdDeviation="15"/></filter><radialGradient id="paint0_radial_2_3033" cx="0" cy="0" r="1" gradientTransform="translate(10.1491 16.0709) rotate(58.4022) scale(156.949 228.309)" gradientUnits="userSpaceOnUse"><stop offset=".443" stop-color="#F5F7F8"/><stop offset="1" stop-color="#FCE8F6"/></radialGradient></defs></svg>