<svg xmlns="http://www.w3.org/2000/svg" width="81" height="80" fill="none" viewBox="0 0 81 80"><mask id="mask0_1328_5113" style="mask-type:alpha" width="60" height="68" x="10" y="6" maskUnits="userSpaceOnUse"><path fill="url(#paint0_radial_1328_5113)" d="M42.7623 72.6663C41.0296 73.669 38.8931 73.669 37.1604 72.6663L13.1263 58.759C11.3987 57.7593 10.3348 55.9145 10.3348 53.9185L10.3348 26.0819C10.3348 24.0859 11.3987 22.2412 13.1263 21.2415L37.1604 7.33412C38.8931 6.33149 41.0296 6.33149 42.7623 7.33412L66.7964 21.2415C68.524 22.2412 69.5879 24.0859 69.5879 26.0819L69.5879 53.9185C69.5879 55.9146 68.524 57.7593 66.7964 58.759L42.7623 72.6663Z"/></mask><g mask="url(#mask0_1328_5113)"><g filter="url(#filter0_f_1328_5113)"><circle cx="-26.334" cy="19.406" r="48.934" fill="#DB6CBC" transform="rotate(-180 -26.3341 19.4061)"/></g><g filter="url(#filter1_f_1328_5113)"><circle cx="53.15" cy="-30.963" r="48.268" fill="#E9922D" transform="rotate(-180 53.15 -30.9633)"/></g></g><defs><filter id="filter0_f_1328_5113" width="177.867" height="177.867" x="-115.268" y="-69.527" color-interpolation-filters="sRGB" filterUnits="userSpaceOnUse"><feFlood flood-opacity="0" result="BackgroundImageFix"/><feBlend in="SourceGraphic" in2="BackgroundImageFix" mode="normal" result="shape"/><feGaussianBlur result="effect1_foregroundBlur_1328_5113" stdDeviation="20"/></filter><filter id="filter1_f_1328_5113" width="176.535" height="176.535" x="-35.117" y="-119.23" color-interpolation-filters="sRGB" filterUnits="userSpaceOnUse"><feFlood flood-opacity="0" result="BackgroundImageFix"/><feBlend in="SourceGraphic" in2="BackgroundImageFix" mode="normal" result="shape"/><feGaussianBlur result="effect1_foregroundBlur_1328_5113" stdDeviation="20"/></filter><radialGradient id="paint0_radial_1328_5113" cx="0" cy="0" r="1" gradientTransform="translate(62.831 63.5877) rotate(-121.598) scale(104.491 152)" gradientUnits="userSpaceOnUse"><stop offset=".443" stop-color="#F5F7F8"/><stop offset="1" stop-color="#FCE8F6"/></radialGradient></defs></svg>